<svg width="128" height="128" viewBox="0 0 128 128" xmlns="http://www.w3.org/2000/svg">
  <defs>
    <linearGradient id="bg" x1="0%" y1="0%" x2="100%" y2="100%">
      <stop offset="0%" style="stop-color:#4682B4;stop-opacity:1" />
      <stop offset="100%" style="stop-color:#5a9bc8;stop-opacity:1" />
    </linearGradient>
  </defs>
  
  <!-- Background circle -->
  <circle cx="64" cy="64" r="60" fill="url(#bg)" stroke="#FF8000" stroke-width="4"/>
  
  <!-- Letter B -->
  <path d="M35 25 L35 103 L55 103 Q75 103 75 83 Q75 63 55 63 L55 43 L75 43 L75 23 L35 23 Z" fill="white"/>
  <path d="M35 43 L55 43 L55 63 L35 63 Z" fill="white"/>
  
  <!-- Calendar icon -->
  <rect x="80" y="35" width="32" height="24" rx="2" fill="#FF8000"/>
  <rect x="82" y="37" width="28" height="20" rx="1" fill="white"/>
  <rect x="82" y="37" width="28" height="6" fill="#FF8000"/>
  <circle cx="88" cy="40" r="1" fill="white"/>
  <circle cx="92" cy="40" r="1" fill="white"/>
  <circle cx="96" cy="40" r="1" fill="white"/>
  
  <!-- Meeting dots -->
  <circle cx="88" cy="50" r="2" fill="#4682B4"/>
  <circle cx="96" cy="50" r="2" fill="#4682B4"/>
  <circle cx="104" cy="50" r="2" fill="#4682B4"/>
</svg> 